<?xml version="1.0" encoding="UTF-8"?>
<svg xmlns="http://www.w3.org/2000/svg" viewBox="0 0 2721.71 532.33">
  <defs>
    <style>
      .cls-1 {
        fill: #46e54c;
      }
    </style>
  </defs>
  <g id="gib">
    <g id="gib-2" data-name="gib">
      <path d="M391.38,384.13c-6.13,7.69-13.68,14.4-22.67,20.13-8.99,5.73-18.63,10.49-28.92,14.27-10.29,3.78-20.85,6.61-31.66,8.5-10.82,1.89-21.11,2.83-30.88,2.83-18.89,0-36.29-3.19-52.18-9.58-15.9-6.38-29.61-15.27-41.14-26.68-11.53-11.4-20.55-24.98-27.07-40.75-6.52-15.76-9.77-32.96-9.77-51.59,0-14.2,1.63-28.01,4.89-41.43,3.26-13.42,7.91-25.99,13.97-37.72,6.06-11.73,13.45-22.47,22.18-32.25,8.73-9.77,18.63-18.17,29.71-25.21,11.07-7.04,23.22-12.47,36.45-16.32,13.22-3.84,27.26-5.77,42.12-5.77,5.6,0,11.59.23,17.98.68,6.38.46,12.73,1.24,19.05,2.35,6.32,1.11,12.47,2.64,18.47,4.59,5.99,1.95,11.46,4.37,16.42,7.23l-5.47,74.65c-7.3-2.74-14.82-4.59-22.57-5.57-7.75-.98-15.34-1.47-22.77-1.47-10.42,0-20.16,1.4-29.22,4.2-9.06,2.8-16.94,6.94-23.65,12.41-6.71,5.47-12.02,12.31-15.93,20.52-3.91,8.21-5.86,17.72-5.86,28.53,0,6.78.91,13.32,2.74,19.64,1.82,6.32,4.59,11.92,8.31,16.81,3.71,4.89,8.34,8.83,13.88,11.82,5.54,3,11.95,4.49,19.25,4.49,4.95,0,10.06-.65,15.34-1.95,5.28-1.3,9.8-3.52,13.58-6.64l.78-15.24-46.9-.78,2.35-58.63c19.41-.65,38.82-1.2,58.24-1.66,19.41-.45,38.95-1.07,58.63-1.86l2.35,127.42Z"/>
      <path d="M508.25,152.74l-13.68,266.18-82.47,4.3-7.82-265,103.97-5.47Z"/>
      <path d="M751.56,358.33c0,10.82-1.99,20.13-5.96,27.95-3.98,7.82-9.28,14.46-15.93,19.93-6.64,5.47-14.3,9.94-22.96,13.39-8.67,3.45-17.69,6.16-27.07,8.11-9.38,1.95-18.79,3.26-28.24,3.91-9.45.65-18.27.98-26.48.98s-16.45-.29-25.11-.88c-8.67-.59-17.3-1.6-25.89-3.03-8.6-1.43-17.07-3.35-25.41-5.77-8.34-2.41-16.22-5.44-23.65-9.09l-.39-251.71c7.3-3,15.05-5.7,23.26-8.11,8.21-2.41,16.58-4.43,25.11-6.06,8.53-1.63,17.03-2.86,25.5-3.71,8.47-.85,16.68-1.27,24.62-1.27,9.25,0,18.6.59,28.04,1.76,9.44,1.17,18.53,3.13,27.26,5.86,8.73,2.74,16.87,6.29,24.43,10.65,7.55,4.37,14.17,9.74,19.84,16.12,5.67,6.39,10.1,13.81,13.29,22.28,3.19,8.47,4.79,18.24,4.79,29.31,0,7.3-1.04,14.14-3.13,20.52-2.09,6.39-5.08,12.12-8.99,17.2-3.91,5.08-8.67,9.41-14.27,13-5.6,3.58-11.92,6.22-18.96,7.91,8.47,2.22,16.19,5.47,23.16,9.77,6.97,4.3,12.9,9.51,17.78,15.63,4.89,6.13,8.66,13.03,11.33,20.72,2.67,7.69,4.01,15.9,4.01,24.62ZM624.53,310.65c-3.78,0-7.43.39-10.94,1.17l-.78,44.56c1.95.39,3.87.75,5.77,1.07,1.89.33,3.74.49,5.57.49,2.74,0,5.73-.29,8.99-.88,3.26-.59,6.32-1.76,9.19-3.52,2.86-1.76,5.24-4.13,7.13-7.13,1.89-3,2.83-6.97,2.83-11.92s-.95-8.99-2.83-12.12c-1.89-3.13-4.2-5.57-6.94-7.33s-5.73-2.93-8.99-3.52c-3.26-.59-6.25-.88-8.99-.88ZM652.28,246.94c0-3.78-.78-7-2.35-9.67-1.56-2.67-3.49-4.85-5.77-6.55-2.28-1.69-4.76-2.93-7.43-3.71-2.67-.78-5.05-1.17-7.13-1.17-2.61,0-5.15.39-7.62,1.17-2.48.78-4.89,1.69-7.23,2.74l-1.17,43.39c3,0,6.71-.26,11.14-.78,4.43-.52,8.7-1.66,12.8-3.42s7.59-4.36,10.46-7.82c2.86-3.45,4.3-8.17,4.3-14.17Z"/>
    </g>
  </g>
  <g id="frog">
    <g id="frog-2" data-name="frog">
      <g id="Layer0_0_FILL" data-name="Layer0 0 FILL">
        <path class="cls-1" d="M1199.26,128.48c-6.25-5.24-12.77-9.51-19.56-12.81-13.05-6.43-26.98-9.64-41.77-9.64s-27.61,3.12-38.73,9.37c-2.02,1.1-3.9,2.29-5.64,3.58-.47.38-1.02.84-1.65,1.38l-13.65,9.24c-9.55,6.99-21.68,10.39-36.38,10.21h-.84c-8.26-.29-15.79-1.53-22.59-3.74-5.24-1.74-10.06-4.03-14.47-6.88l-14.06-9.37c-.74-.45-1.34-.91-1.79-1.38-1.93-1.19-3.82-2.29-5.66-3.31-11.21-6.07-23.29-9.1-36.24-9.1s-24.3,2.94-34.32,8.83c-5.24,2.94-10.1,6.75-14.6,11.43-13.15,13.42-19.62,30.09-19.42,50.03.09,9.1,1.61,17.69,4.55,25.76,5.69,19.85,1.65,35.38-12.13,46.59-1.37,1.19-2.71,2.48-4.01,3.85-13.69,14.07-20.53,31.89-20.53,53.47,0,19.57,5.74,37.26,17.23,53.06,43.37,58.89,110.81,94.73,202.32,107.51.36.09.68.14.95.14,100.6,10.47,173.6-12.54,219-69.05,12.68-15.89,17.17-35.42,13.49-58.59-2.66-16.62-8.81-31.63-18.45-45.05-5.43-7.35-11.82-14.19-19.17-20.53-2.01-1.75-3.98-3.4-5.91-4.96-19.76-14.34-27.8-32.44-24.13-54.31,2.49-9.01,2.95-18.65,1.38-28.93-3.21-22.43-14.28-41.36-33.21-56.8M1172.12,166.54c4.41,4.41,6.61,9.78,6.61,16.12s-2.2,11.67-6.61,15.98c0,.09-.05.14-.14.14-4.32,4.41-9.64,6.61-15.98,6.61s-11.73-2.2-16.14-6.61c-4.41-4.41-6.61-9.78-6.61-16.12s2.16-11.62,6.47-16.12l.14-.14c4.51-4.33,9.89-6.5,16.14-6.5s11.71,2.21,16.12,6.63M959.75,172.6c0,6.23-2.16,11.56-6.47,15.98-.09,0-.19.05-.29.14-2.02,2.11-4.23,3.67-6.61,4.69-2.48,1.37-5.18,2.01-8.13,1.92h-1.25c-6.34,0-11.71-2.2-16.12-6.61-4.41-4.41-6.61-9.78-6.61-16.12s2.16-11.63,6.47-16.14l.14-.14c4.5-4.32,9.87-6.47,16.12-6.47s11.72,2.2,16.14,6.61c4.41,4.41,6.61,9.79,6.61,16.14M963.73,276.65c-1.83-3.21-2.01-6.25-.54-9.1.92-2.58,2.53-4.42,4.82-5.52.09-.09.18-.14.27-.14,3.12-1.65,6.11-1.6,8.96.14,2.11.74,3.86,2.21,5.23,4.41.09.18.23.42.41.7,9.1,16.81,30.65,26.32,64.65,28.52,32.61,2.11,54.16-5.01,64.63-21.37.09-.18.18-.32.27-.41,1.65-2.38,3.85-3.86,6.61-4.41,2.85-1.01,5.84-.37,8.96,1.92,2.29,1.48,3.9,3.55,4.82,6.2v.29c1.01,3.02.69,5.86-.97,8.53l.14-.14c-13.22,24.07-41.43,34.64-84.62,31.69-44.73-3.12-72.62-16.9-83.65-41.34Z"/>
      </g>
    </g>
  </g>
  <g id="meme">
    <g id="meme-2" data-name="meme">
      <path d="M1742.03,294.43c0,18.63-.59,37.2-1.76,55.7-1.17,18.5-2.54,37.07-4.1,55.7l-100.45,4.69c3-22.67,5.7-45.37,8.11-68.11,2.41-22.73,3.62-45.5,3.62-68.3,0-1.43-.07-3.94-.2-7.52-.13-3.58-.36-7.65-.68-12.21-.33-4.56-.78-9.28-1.37-14.17-.59-4.89-1.37-9.38-2.35-13.48-.98-4.1-2.18-7.46-3.62-10.06-1.44-2.6-3.13-3.91-5.08-3.91-4.56,0-8.14,1.73-10.75,5.18-2.61,3.45-4.53,7.59-5.77,12.41-1.24,4.82-1.99,9.74-2.25,14.75-.26,5.02-.39,9.09-.39,12.21,0,5.47.13,10.94.39,16.42.26,5.47.39,11.08.39,16.81,0,20.2-.49,40.33-1.47,60.39-.98,20.07-2.18,40.19-3.62,60.39l-92.63,3.52c3-22.67,5.63-45.31,7.91-67.91,2.28-22.6,3.42-45.31,3.42-68.11,0-1.43-.07-4.04-.2-7.82-.13-3.78-.36-8.01-.68-12.7-.33-4.69-.82-9.58-1.47-14.66-.65-5.08-1.47-9.74-2.44-13.97-.98-4.23-2.18-7.72-3.62-10.46-1.44-2.74-3.19-4.1-5.28-4.1-3.26,0-5.99,1.27-8.21,3.81-2.22,2.54-4.01,5.83-5.37,9.87-1.37,4.04-2.41,8.5-3.13,13.39-.72,4.89-1.24,9.67-1.56,14.36-.33,4.69-.52,9.02-.59,13-.07,3.98-.16,6.94-.29,8.89l-4.3,142.66h-98.5c2.08-22.02,4.2-44.1,6.35-66.25,2.15-22.15,4.04-44.26,5.67-66.35,1.63-22.08,2.96-44.2,4.01-66.35,1.04-22.15,1.56-44.3,1.56-66.45l93.02-3.91-.39,22.67c2.86-3.65,6.12-7.33,9.77-11.04,3.65-3.71,7.52-7.04,11.63-9.97,4.1-2.93,8.47-5.31,13.09-7.13,4.62-1.82,9.41-2.74,14.36-2.74,6.38,0,12.12.49,17.2,1.47s9.67,2.64,13.78,4.98c4.1,2.35,7.72,5.57,10.85,9.67,3.13,4.1,5.86,9.28,8.21,15.54,4.17-4.56,8.37-8.79,12.61-12.7,4.23-3.91,8.7-7.26,13.39-10.06,4.69-2.8,9.77-4.98,15.24-6.55,5.47-1.56,11.53-2.35,18.17-2.35,12.64,0,23.38,2.44,32.25,7.33,8.86,4.89,16.25,11.37,22.18,19.45,5.93,8.08,10.55,17.33,13.88,27.75,3.32,10.42,5.83,21.24,7.52,32.44,1.69,11.21,2.77,22.35,3.22,33.42.45,11.08.68,21.24.68,30.49Z"/>
      <path d="M1977.92,269.02c0,11.33-.78,22.67-2.35,34-22.28,1.44-44.43,3.75-66.45,6.94-22.02,3.19-44.04,6.35-66.06,9.48,3.39,9.38,8.7,16.87,15.93,22.47,7.23,5.6,15.86,8.4,25.89,8.4,5.21,0,10.91-.98,17.1-2.93,6.19-1.95,12.34-4.4,18.47-7.33,6.12-2.93,11.99-6.09,17.59-9.48,5.6-3.39,10.42-6.45,14.46-9.19l-9.38,88.73c-5.08,3.91-10.59,7.23-16.51,9.97-5.93,2.74-12.09,4.95-18.47,6.64-6.39,1.69-12.83,2.93-19.35,3.71-6.52.78-12.9,1.17-19.15,1.17-12.9,0-24.69-1.76-35.37-5.28-10.68-3.52-20.36-8.43-29.02-14.75-8.67-6.32-16.25-13.78-22.77-22.38-6.52-8.6-11.92-17.98-16.22-28.14s-7.56-20.91-9.77-32.25c-2.22-11.33-3.32-22.8-3.32-34.4s1.11-24.23,3.32-36.35c2.21-12.12,5.57-23.78,10.06-34.98,4.49-11.2,10.16-21.6,17-31.17,6.84-9.58,14.82-17.95,23.94-25.11,9.12-7.16,19.45-12.77,30.98-16.81,11.53-4.04,24.26-6.06,38.21-6.06,11.59,0,22.18,1.6,31.76,4.79,9.58,3.19,18.11,7.62,25.6,13.29,7.49,5.67,14,12.41,19.54,20.23,5.54,7.82,10.1,16.39,13.68,25.7,3.58,9.32,6.25,19.15,8.01,29.51s2.64,20.88,2.64,31.56ZM1899.74,258.86c0-3.65-.39-7.39-1.17-11.24-.78-3.84-2.05-7.33-3.81-10.46s-4.07-5.7-6.94-7.72c-2.87-2.02-6.45-3.03-10.75-3.03-5.21,0-9.81,1.4-13.78,4.2-3.98,2.8-7.4,6.32-10.26,10.55-2.87,4.24-5.21,8.83-7.04,13.78-1.83,4.95-3.19,9.51-4.1,13.68l57.85-5.47v-4.3Z"/>
      <path d="M2329.49,294.43c0,18.63-.59,37.2-1.76,55.7-1.17,18.5-2.54,37.07-4.1,55.7l-100.45,4.69c3-22.67,5.7-45.37,8.11-68.11,2.41-22.73,3.62-45.5,3.62-68.3,0-1.43-.07-3.94-.2-7.52-.13-3.58-.36-7.65-.68-12.21-.33-4.56-.78-9.28-1.37-14.17-.59-4.89-1.37-9.38-2.35-13.48-.98-4.1-2.18-7.46-3.62-10.06-1.44-2.6-3.13-3.91-5.08-3.91-4.56,0-8.14,1.73-10.75,5.18-2.61,3.45-4.53,7.59-5.77,12.41-1.24,4.82-1.99,9.74-2.25,14.75-.26,5.02-.39,9.09-.39,12.21,0,5.47.13,10.94.39,16.42.26,5.47.39,11.08.39,16.81,0,20.2-.49,40.33-1.47,60.39-.98,20.07-2.18,40.19-3.62,60.39l-92.63,3.52c3-22.67,5.63-45.31,7.91-67.91,2.28-22.6,3.42-45.31,3.42-68.11,0-1.43-.07-4.04-.2-7.82-.13-3.78-.36-8.01-.68-12.7-.33-4.69-.82-9.58-1.47-14.66-.65-5.08-1.47-9.74-2.44-13.97-.98-4.23-2.18-7.72-3.62-10.46-1.44-2.74-3.19-4.1-5.28-4.1-3.26,0-5.99,1.27-8.21,3.81-2.22,2.54-4.01,5.83-5.37,9.87-1.37,4.04-2.41,8.5-3.13,13.39-.72,4.89-1.24,9.67-1.56,14.36-.33,4.69-.52,9.02-.59,13-.07,3.98-.16,6.94-.29,8.89l-4.3,142.66h-98.5c2.08-22.02,4.2-44.1,6.35-66.25,2.15-22.15,4.04-44.26,5.67-66.35,1.63-22.08,2.96-44.2,4.01-66.35,1.04-22.15,1.56-44.3,1.56-66.45l93.02-3.91-.39,22.67c2.86-3.65,6.12-7.33,9.77-11.04,3.65-3.71,7.52-7.04,11.63-9.97,4.1-2.93,8.47-5.31,13.09-7.13,4.62-1.82,9.41-2.74,14.36-2.74,6.38,0,12.12.49,17.2,1.47,5.08.98,9.67,2.64,13.78,4.98,4.1,2.35,7.72,5.57,10.85,9.67,3.13,4.1,5.86,9.28,8.21,15.54,4.17-4.56,8.37-8.79,12.61-12.7,4.23-3.91,8.7-7.26,13.39-10.06,4.69-2.8,9.77-4.98,15.24-6.55,5.47-1.56,11.53-2.35,18.17-2.35,12.64,0,23.38,2.44,32.25,7.33,8.86,4.89,16.25,11.37,22.18,19.45,5.93,8.08,10.55,17.33,13.88,27.75,3.32,10.42,5.83,21.24,7.52,32.44,1.69,11.21,2.77,22.35,3.22,33.42.45,11.08.68,21.24.68,30.49Z"/>
      <path d="M2565.38,269.02c0,11.33-.78,22.67-2.35,34-22.28,1.44-44.43,3.75-66.45,6.94-22.02,3.19-44.04,6.35-66.06,9.48,3.39,9.38,8.7,16.87,15.93,22.47,7.23,5.6,15.86,8.4,25.89,8.4,5.21,0,10.91-.98,17.1-2.93,6.19-1.95,12.34-4.4,18.47-7.33,6.12-2.93,11.99-6.09,17.59-9.48,5.6-3.39,10.42-6.45,14.46-9.19l-9.38,88.73c-5.08,3.91-10.59,7.23-16.51,9.97-5.93,2.74-12.09,4.95-18.47,6.64-6.39,1.69-12.83,2.93-19.35,3.71-6.52.78-12.9,1.17-19.15,1.17-12.9,0-24.69-1.76-35.37-5.28-10.68-3.52-20.36-8.43-29.02-14.75-8.67-6.32-16.25-13.78-22.77-22.38-6.52-8.6-11.92-17.98-16.22-28.14-4.3-10.16-7.56-20.91-9.77-32.25-2.22-11.33-3.32-22.8-3.32-34.4s1.11-24.23,3.32-36.35c2.21-12.12,5.57-23.78,10.06-34.98,4.49-11.2,10.16-21.6,17-31.17,6.84-9.58,14.82-17.95,23.94-25.11,9.12-7.16,19.45-12.77,30.98-16.81,11.53-4.04,24.26-6.06,38.21-6.06,11.59,0,22.18,1.6,31.76,4.79,9.58,3.19,18.11,7.62,25.6,13.29,7.49,5.67,14,12.41,19.54,20.23,5.54,7.82,10.1,16.39,13.68,25.7,3.58,9.32,6.25,19.15,8.01,29.51,1.76,10.36,2.64,20.88,2.64,31.56ZM2487.21,258.86c0-3.65-.39-7.39-1.17-11.24-.78-3.84-2.05-7.33-3.81-10.46-1.76-3.13-4.07-5.7-6.94-7.72-2.87-2.02-6.45-3.03-10.75-3.03-5.21,0-9.81,1.4-13.78,4.2-3.98,2.8-7.4,6.32-10.26,10.55-2.87,4.24-5.21,8.83-7.04,13.78-1.83,4.95-3.19,9.51-4.1,13.68l57.85-5.47v-4.3Z"/>
    </g>
  </g>
</svg>